<?xml version="1.0" encoding="UTF-8" standalone="no" ?>
<!DOCTYPE svg PUBLIC "-//W3C//DTD SVG 1.1//EN" "http://www.w3.org/Graphics/SVG/1.1/DTD/svg11.dtd">
<svg xmlns="http://www.w3.org/2000/svg" xmlns:xlink="http://www.w3.org/1999/xlink" version="1.1" width="330" height="330" viewBox="0 0 330 330" xml:space="preserve">
<desc>Created with Fabric.js 1.7.22</desc>
<defs>
</defs>
<g id="icon" style="stroke: none; stroke-width: 1; stroke-dasharray: none; stroke-linecap: butt; stroke-linejoin: miter; stroke-miterlimit: 10; fill: none; fill-rule: nonzero; opacity: 1;" transform="translate(-1.8333333333333144 -1.8333333333333144) scale(3.67 3.67)" >
	<polygon points="37.21,0 41.53,15.05 48.47,15.05 52.79,0 " style="stroke: none; stroke-width: 1; stroke-dasharray: none; stroke-linecap: butt; stroke-linejoin: miter; stroke-miterlimit: 10; fill: rgb(0,0,0); fill-rule: nonzero; opacity: 1;" transform="  matrix(1 0 0 1 0 0) "/>
	<path d="M 24.108 35.615 c 5.178 -4.457 11.786 -7.294 19.036 -7.71 l -2.779 -9.677 h 0 L 35.131 0 h -0.753 c -0.022 0 -0.04 0.011 -0.061 0.012 c -0.052 0.003 -0.099 0.019 -0.15 0.03 c -0.094 0.021 -0.182 0.048 -0.264 0.094 c -0.022 0.012 -0.048 0.011 -0.069 0.025 l -16.3 10.579 c -0.371 0.241 -0.54 0.697 -0.415 1.121 L 24.108 35.615 z" style="stroke: none; stroke-width: 1; stroke-dasharray: none; stroke-linecap: butt; stroke-linejoin: miter; stroke-miterlimit: 10; fill: rgb(0,0,0); fill-rule: nonzero; opacity: 1;" transform=" matrix(1 0 0 1 0 0) " stroke-linecap="round" />
	<path d="M 65.893 35.615 l 6.989 -23.755 c 0.125 -0.424 -0.044 -0.88 -0.415 -1.121 l -16.3 -10.579 c -0.021 -0.013 -0.047 -0.012 -0.068 -0.024 c -0.082 -0.045 -0.169 -0.073 -0.263 -0.094 c -0.052 -0.012 -0.1 -0.028 -0.153 -0.031 C 55.662 0.011 55.644 0 55.623 0 H 54.87 l -4.959 17.27 l -3.054 10.636 C 54.106 28.321 60.714 31.158 65.893 35.615 z" style="stroke: none; stroke-width: 1; stroke-dasharray: none; stroke-linecap: butt; stroke-linejoin: miter; stroke-miterlimit: 10; fill: rgb(0,0,0); fill-rule: nonzero; opacity: 1;" transform=" matrix(1 0 0 1 0 0) " stroke-linecap="round" />
	<path d="M 75.033 58.326 c -0.008 -0.145 -0.023 -0.288 -0.033 -0.432 c -0.026 -0.386 -0.053 -0.771 -0.093 -1.153 c -0.016 -0.151 -0.039 -0.3 -0.057 -0.45 c -0.045 -0.375 -0.092 -0.75 -0.151 -1.122 c -0.021 -0.135 -0.049 -0.268 -0.072 -0.403 c -0.067 -0.387 -0.137 -0.772 -0.219 -1.154 c -0.024 -0.112 -0.052 -0.222 -0.077 -0.333 c -0.092 -0.404 -0.188 -0.807 -0.296 -1.204 c -0.023 -0.086 -0.049 -0.171 -0.073 -0.256 c -0.119 -0.424 -0.245 -0.846 -0.382 -1.263 c -0.018 -0.056 -0.038 -0.112 -0.057 -0.168 c -0.15 -0.448 -0.309 -0.892 -0.48 -1.331 c -0.009 -0.024 -0.019 -0.048 -0.028 -0.072 c -1.697 -4.329 -4.368 -8.173 -7.745 -11.259 l 0.005 -0.015 c -5.051 -4.614 -11.682 -7.523 -18.986 -7.831 l 0 0.001 c -0.428 -0.018 -0.857 -0.033 -1.289 -0.033 c -0.432 0 -0.861 0.015 -1.289 0.033 l 0 -0.001 c -7.304 0.308 -13.935 3.218 -18.987 7.831 l 0.005 0.015 c -3.376 3.086 -6.048 6.93 -7.745 11.259 c -0.009 0.024 -0.019 0.048 -0.029 0.073 c -0.17 0.438 -0.329 0.882 -0.479 1.33 c -0.019 0.056 -0.039 0.112 -0.057 0.168 c -0.137 0.417 -0.263 0.839 -0.382 1.264 c -0.024 0.085 -0.049 0.169 -0.072 0.254 c -0.108 0.398 -0.204 0.8 -0.296 1.204 c -0.025 0.112 -0.053 0.223 -0.077 0.335 c -0.082 0.382 -0.152 0.768 -0.219 1.156 c -0.023 0.133 -0.05 0.266 -0.071 0.4 c -0.06 0.373 -0.107 0.751 -0.152 1.129 c -0.018 0.148 -0.041 0.294 -0.056 0.442 c -0.04 0.383 -0.068 0.77 -0.094 1.157 c -0.01 0.144 -0.025 0.285 -0.033 0.43 c -0.028 0.529 -0.043 1.062 -0.043 1.598 C 14.924 76.508 28.416 90 45 90 s 30.076 -13.492 30.076 -30.076 C 75.076 59.388 75.061 58.855 75.033 58.326 z M 45 81.299 c -11.787 0 -21.375 -9.589 -21.375 -21.375 c 0 -0.553 0.448 -1 1 -1 s 1 0.447 1 1 c 0 10.684 8.692 19.375 19.375 19.375 c 0.552 0 1 0.447 1 1 S 45.552 81.299 45 81.299 z M 57.987 57.054 c 0 0.61 -0.266 1.188 -0.729 1.586 L 41.984 71.764 c -0.397 0.342 -0.882 0.51 -1.364 0.51 c -0.567 0 -1.132 -0.233 -1.547 -0.69 l -6.517 -7.177 c -0.351 -0.386 -0.543 -0.885 -0.543 -1.405 v -4.728 c 0 -0.871 0.525 -1.637 1.338 -1.95 c 0.813 -0.312 1.716 -0.101 2.301 0.545 l 4.902 5.397 c 0.034 0.036 0.09 0.04 0.127 0.008 l 13.854 -11.902 c 0.626 -0.539 1.485 -0.661 2.234 -0.313 c 0.752 0.345 1.219 1.073 1.219 1.9 V 57.054 z M 65.375 60.924 c -0.553 0 -1 -0.447 -1 -1 c 0 -10.684 -8.691 -19.375 -19.375 -19.375 c -0.552 0 -1 -0.448 -1 -1 s 0.448 -1 1 -1 c 11.786 0 21.375 9.589 21.375 21.375 C 66.375 60.477 65.928 60.924 65.375 60.924 z" style="stroke: none; stroke-width: 1; stroke-dasharray: none; stroke-linecap: butt; stroke-linejoin: miter; stroke-miterlimit: 10; fill: rgb(0,0,0); fill-rule: nonzero; opacity: 1;" transform=" matrix(1 0 0 1 0 0) " stroke-linecap="round" />
	<path d="M 39.073 63.609 l -4.902 -5.397 c -0.019 -0.021 -0.043 -0.044 -0.1 -0.023 c -0.059 0.022 -0.059 0.058 -0.059 0.085 v 4.728 l 0.013 0.034 l 0.011 0.028 l 6.518 7.177 c 0.034 0.035 0.088 0.04 0.126 0.008 l 15.276 -13.125 l 0.033 -5.377 L 41.984 63.791 C 41.119 64.534 39.841 64.455 39.073 63.609 z" style="stroke: none; stroke-width: 1; stroke-dasharray: none; stroke-linecap: butt; stroke-linejoin: miter; stroke-miterlimit: 10; fill: rgb(0,0,0); fill-rule: nonzero; opacity: 1;" transform=" matrix(1 0 0 1 0 0) " stroke-linecap="round" />
</g>
</svg>